<svg id="Capa_1" data-name="Capa 1" xmlns="http://www.w3.org/2000/svg" viewBox="0 0 20 20"><defs><style>.cls-1{fill:#ff1529;}.cls-2{fill:#e0e5ee;}.cls-3{fill:#1a1a1a;}.cls-4{fill:#ffc60b;}</style></defs><title>alert</title><circle class="cls-1" cx="10" cy="10" r="9.29"/><path class="cls-2" d="M10,19.5A9.5,9.5,0,1,1,19.5,10,9.51,9.51,0,0,1,10,19.5ZM10,.91A9.09,9.09,0,1,0,19.09,10,9.1,9.1,0,0,0,10,.91Z"/><path class="cls-3" d="M10.56,7.8l-.14,3.57a.61.61,0,0,1-.13.33.41.41,0,0,1-.29.13.46.46,0,0,1-.42-.46L9.44,7.8a.45.45,0,0,1,.41-.51h.3A.45.45,0,0,1,10.56,7.8Z"/><path class="cls-3" d="M10.58,12.72a.58.58,0,1,1-1.16,0,.58.58,0,1,1,1.16,0Z"/><path class="cls-4" d="M15.51,13.2,10.8,5A.93.93,0,0,0,9.2,5L4.49,13.2a.89.89,0,0,0,0,.92.92.92,0,0,0,.8.46h9.42a.92.92,0,0,0,.8-.46A.89.89,0,0,0,15.51,13.2Zm-.58.59a.25.25,0,0,1-.22.13H5.29a.25.25,0,0,1-.22-.13.26.26,0,0,1,0-.26L9.78,5.38a.25.25,0,0,1,.44,0l4.71,8.15A.26.26,0,0,1,14.93,13.79Z"/><path class="cls-4" d="M14.93,13.53,10.22,5.38a.25.25,0,0,0-.44,0L5.07,13.53a.26.26,0,0,0,0,.26.25.25,0,0,0,.22.13h9.42a.25.25,0,0,0,.22-.13A.26.26,0,0,0,14.93,13.53ZM9.85,7.29h.3a.45.45,0,0,1,.41.51l-.14,3.57a.61.61,0,0,1-.13.33.41.41,0,0,1-.29.13.46.46,0,0,1-.42-.46L9.44,7.8A.45.45,0,0,1,9.85,7.29Zm.15,6a.59.59,0,0,1-.58-.59.58.58,0,1,1,1.16,0A.59.59,0,0,1,10,13.31Z"/></svg>
