<svg id="Capa_1" data-name="Capa 1" xmlns="http://www.w3.org/2000/svg" viewBox="0 0 20 20"><defs><style>.cls-1{fill:#ff5470;}</style></defs><title>book</title><path class="cls-1" d="M9.47,16.55,9,16.16A7.92,7.92,0,0,0,4.6,14.4c-.36,0-.72-.06-1.08-.08-.59,0-.83-.26-.83-.85V4.67c0-.42,0-.83,0-1.25a.68.68,0,0,1,.7-.71A7.61,7.61,0,0,1,7.82,3.92,9.83,9.83,0,0,1,9.11,5.13a1.43,1.43,0,0,1,.37,1.08q0,4.93,0,9.88Z"/><path class="cls-1" d="M10.54,16.48v-.35q0-5,0-10a1.35,1.35,0,0,1,.28-.87,5.86,5.86,0,0,1,3.74-2.31,15.41,15.41,0,0,1,1.93-.23.71.71,0,0,1,.84.8v10c0,.57-.25.82-.82.83a9.15,9.15,0,0,0-4.36,1.06A19.07,19.07,0,0,0,10.54,16.48Z"/><path class="cls-1" d="M1.64,5.12v8.24a1.8,1.8,0,0,0,2,2,7.53,7.53,0,0,1,4.51,1.42.68.68,0,0,1,.22.27L7.89,17a16.39,16.39,0,0,0-6.24.2l-.43.08a.68.68,0,0,1-.76-.63c0-.18,0-.36,0-.54,0-3.35,0-6.7,0-10C.44,5.21.86,5,1.64,5.12Z"/><path class="cls-1" d="M18.37,5.08h.38a.69.69,0,0,1,.8.8c0,1.82,0,3.65,0,5.48v5c0,.73-.32,1-1,.84a17.12,17.12,0,0,0-5.34-.37c-.41,0-.82.11-1.23.17l-.28,0,0-.09c.3-.2.58-.43.89-.61a8.08,8.08,0,0,1,3.93-1A2,2,0,0,0,17.73,15a1.63,1.63,0,0,0,.62-1.22c0-.22,0-.44,0-.67v-8Z"/></svg>