<svg id="Capa_1" data-name="Capa 1" xmlns="http://www.w3.org/2000/svg" viewBox="0 0 20 20"><defs><style>.cls-1{fill:#f2f5fa;}.cls-2{fill:#e0e5ee;}.cls-3{fill:#ebd20c;}.cls-4{fill:#ff2f0c;}.cls-5{fill:#c4aa00;}</style></defs><title>champions</title><circle class="cls-1" cx="10" cy="10" r="9.29"/><path class="cls-2" d="M10,19.5A9.5,9.5,0,1,1,19.5,10,9.51,9.51,0,0,1,10,19.5ZM10,.91A9.09,9.09,0,1,0,19.09,10,9.1,9.1,0,0,0,10,.91Z"/><path class="cls-3" d="M7.75,10.74a4.41,4.41,0,0,1-.5-.58h0a3.41,3.41,0,0,1-1.51-1,3.46,3.46,0,0,1-.78-3A1.32,1.32,0,0,1,6.29,5l-.08-.89a1.49,1.49,0,0,0-.61.06A2.26,2.26,0,0,0,4.08,5.89c-.43,2,.9,4.61,3.17,4.83A2.75,2.75,0,0,0,7.75,10.74Z"/><path class="cls-3" d="M15.92,5.89A2.26,2.26,0,0,0,14.4,4.2a1.49,1.49,0,0,0-.61-.06L13.71,5A1.32,1.32,0,0,1,15.08,6.1a3.46,3.46,0,0,1-.78,3,3.41,3.41,0,0,1-1.51,1h0a4.41,4.41,0,0,1-.5.58,2.75,2.75,0,0,0,.5,0C15,10.5,16.35,7.87,15.92,5.89Z"/><path class="cls-4" d="M12.46,13.62H7.54a.46.46,0,0,0-.46.42l-.23,2.08h6.3L12.92,14A.46.46,0,0,0,12.46,13.62Z"/><path class="cls-3" d="M6.81,8.62a3.58,3.58,0,0,0,1.6,2.44,1,1,0,0,1,.16,1.31.39.39,0,0,1-.33.18h0a.29.29,0,0,0-.29.29v.57h4.1v-.57a.29.29,0,0,0-.29-.29.39.39,0,0,1-.33-.18,1,1,0,0,1,.16-1.31,3.58,3.58,0,0,0,1.6-2.44l.45-4.5a1,1,0,0,0,0-.24H6.36a1,1,0,0,0,0,.24Z"/><polygon class="cls-5" points="9.34 6.29 10 4.96 10.66 6.29 12.14 6.51 11.07 7.55 11.32 9.02 10 8.33 8.68 9.02 8.93 7.55 7.86 6.51 9.34 6.29"/></svg>
