<svg xmlns="http://www.w3.org/2000/svg" viewBox="0 0 304.16 304.16"><defs><style>.cls-1{fill:#ea534b;}</style></defs><title>Recurso 72</title><g id="Capa_2" data-name="Capa 2"><g id="Capa_1-2" data-name="Capa 1"><path class="cls-1" d="M152.08,0A152.08,152.08,0,1,0,304.16,152.08,152.08,152.08,0,0,0,152.08,0Zm73.51,209-15.5,15.53c-7.48,6.34-16.91,7-24.69-.26l-33.32-33L119.44,223c-7.7,7.73-16,8.95-25.16,1.51L78.37,208.56A20.56,20.56,0,0,1,75.14,198c-.07-4.42,1.59-8.81,5.09-13.15L113.88,152,80.23,118.28c-3.42-4-5.15-8.18-5.09-12.43,0-3.78,1.41-7.64,4.32-11.58l16-15.51q12.14-8.16,23.5.72l33.13,33.64,34.1-33.64c6.62-5.81,17.11-6.49,23.91,0l15.78,15.65c2,2.28,3.52,7,3.47,11.75a16,16,0,0,1-3.47,10.52L191.21,152l34.65,34.59a16,16,0,0,1,3.66,10.53A18.12,18.12,0,0,1,225.59,209Z"/></g></g></svg>
