<svg id="Capa_1" data-name="Capa 1" xmlns="http://www.w3.org/2000/svg" viewBox="0 0 20 20"><defs><style>.cls-1{fill:#ff5470;}</style></defs><title>eye</title><path class="cls-1" d="M10.19,15.45a11,11,0,0,1-7-2.54A17.21,17.21,0,0,1,.58,10.36a.51.51,0,0,1,0-.7C3,6.71,5.94,4.61,10,4.55A10.53,10.53,0,0,1,17,7.21c.84.7,1.57,1.54,2.34,2.32a.58.58,0,0,1,0,.85c-2.18,2.66-4.8,4.59-8.33,5C10.72,15.43,10.37,15.44,10.19,15.45ZM10,5.91A4.08,4.08,0,1,0,14.08,10,4.06,4.06,0,0,0,10,5.91Z"/><path class="cls-1" d="M10.54,7.22C10,8,10,8.65,10.61,9.09s1.22.28,1.84-.51a2.76,2.76,0,0,1-.33,3.34,2.86,2.86,0,1,1-1.58-4.7Z"/></svg>
