<svg id="Capa_1" data-name="Capa 1" xmlns="http://www.w3.org/2000/svg" xmlns:xlink="http://www.w3.org/1999/xlink" viewBox="0 0 20 20"><defs><style>.cls-1{fill:none;}.cls-2{fill:#ffd21f;}.cls-3{fill:#403408;}.cls-4{clip-path:url(#clip-path);}.cls-5{fill:#fff;}.cls-6{fill:#d1212d;}</style><clipPath id="clip-path"><path class="cls-1" d="M5.13,10.92a.29.29,0,0,0-.27.4A5.39,5.39,0,0,0,10,14.81a5.48,5.48,0,0,0,5.16-3.51.29.29,0,0,0-.27-.4Z"/></clipPath></defs><title>emoticon2</title><circle class="cls-2" cx="10" cy="10" r="9.5"/><path class="cls-3" d="M4.38,9.43A.48.48,0,0,1,3.9,9a2.2,2.2,0,0,1,.56-1.48A1.68,1.68,0,0,1,5.68,7a1.64,1.64,0,0,1,1.21.48A2.21,2.21,0,0,1,7.44,9,.49.49,0,0,1,7,9.42a.5.5,0,0,1-.48-.49,1.19,1.19,0,0,0-.27-.79A.71.71,0,0,0,5.68,8a.69.69,0,0,0-.53.19,1.31,1.31,0,0,0-.29.79.47.47,0,0,1-.47.49Z"/><path class="cls-3" d="M13,9.43A.48.48,0,0,1,12.56,9a2.2,2.2,0,0,1,.56-1.48A1.68,1.68,0,0,1,14.34,7a1.64,1.64,0,0,1,1.21.48A2.21,2.21,0,0,1,16.1,9a.49.49,0,0,1-.49.47.48.48,0,0,1-.47-.49,1.26,1.26,0,0,0-.28-.79A.7.7,0,0,0,14.34,8a.69.69,0,0,0-.53.19,1.27,1.27,0,0,0-.28.79.49.49,0,0,1-.48.49Z"/><path class="cls-3" d="M5.13,10.92a.29.29,0,0,0-.27.4A5.39,5.39,0,0,0,10,14.81a5.48,5.48,0,0,0,5.16-3.51.29.29,0,0,0-.27-.4Z"/><g class="cls-4"><path class="cls-5" d="M5.56,10.81c-.19,0-.31.06-.24.11.37.27,1.6.94,4.66.94s4.32-.68,4.7-.95c.08-.05,0-.11-.24-.11Z"/><ellipse class="cls-6" cx="9.93" cy="15.59" rx="3.66" ry="1.98"/></g></svg>
