<svg id="Capa_1" data-name="Capa 1" xmlns="http://www.w3.org/2000/svg" viewBox="0 0 20 20"><defs><style>.cls-1{fill:#ff5470;}.cls-2{fill:#fff;}</style></defs><title>graphic</title><path class="cls-1" d="M19.5,7.56V5.79A5.29,5.29,0,0,0,14.21.5H5.79A5.29,5.29,0,0,0,.5,5.79v8.42A5.29,5.29,0,0,0,5.79,19.5h8.42a5.29,5.29,0,0,0,5.29-5.29V7.56Z"/><path class="cls-2" d="M10,10.44l2.1-5.27a5.61,5.61,0,0,0-2.1-.4,5.68,5.68,0,1,0,5.68,5.67v-.11Z"/><path class="cls-2" d="M17.78,9.05a5.66,5.66,0,0,0-3.57-5.16l-2.1,5.27Z"/></svg>
