<svg xmlns="http://www.w3.org/2000/svg" viewBox="0 0 26.42 20.69"><defs><style>.cls-1{fill:#ea5571;}</style></defs><title>Recurso 24</title><g id="Capa_2" data-name="Capa 2"><g id="Capa_1-2" data-name="Capa 1"><path class="cls-1" d="M11,.27C2,7.92,0,10.48,0,11.49v4.63c0,1.82,2.94,4.57,4.4,4.57H16c1,0,.94-3.18,0-3.19l-3.46,0c-.07,0-.07-.47,0-.47H17c1,0,1-2.73,0-2.77H12.55c-.13,0-.12-.5,0-.5h4.62c1.94,0,2.05-3.25,0-3.27H12.57c-.1,0-.11-.47,0-.47l12.72,0c1.49,0,1.54-2.86,0-2.84l-14.63,0L14,3.46C15.69,1.6,12.32-.81,11,.27Z"/></g></g></svg>
