<?xml version="1.0" encoding="utf-8"?>
<!-- Generator: Adobe Illustrator 26.2.1, SVG Export Plug-In . SVG Version: 6.00 Build 0)  -->
<svg version="1.1" id="Capa_1" xmlns="http://www.w3.org/2000/svg" xmlns:xlink="http://www.w3.org/1999/xlink" x="0px" y="0px"
	 viewBox="0 0 44.15 53" style="enable-background:new 0 0 44.15 53;" xml:space="preserve">
<style type="text/css">
	.st0{fill:none;stroke:#0AAFF1;stroke-width:15;stroke-miterlimit:10;}
	.st1{fill:#0AAFF1;}
	.st2{fill:#FFFFFF;}
	.st3{fill:#FFFFFF;stroke:#E0E5EE;stroke-miterlimit:10;}
	.st4{fill:#606060;}
	.st5{fill:none;stroke:#0084F6;stroke-width:11;stroke-miterlimit:10;}
	.st6{fill:#00B346;}
	.st7{fill:#00A3C8;}
	.st8{fill:none;stroke:#00A3C8;stroke-miterlimit:10;}
	.st9{fill:none;stroke:#FFFFFF;stroke-width:4;stroke-miterlimit:10;}
	.st10{fill:#606060;stroke:#606060;stroke-width:5;stroke-miterlimit:10;}
	.st11{fill:none;stroke:#FFFFFF;stroke-width:10;stroke-miterlimit:10;}
	.st12{fill:#606060;stroke:#FFFFFF;stroke-width:10;stroke-miterlimit:10;}
	.st13{fill:#E70027;}
	.st14{fill:#FFFFFC;}
	.st15{fill:#FFFFFF;stroke:#606060;stroke-width:10;stroke-miterlimit:10;}
	.st16{fill:none;stroke:#000000;stroke-width:10;stroke-miterlimit:10;}
	.st17{fill:#F2F5FA;}
	.st18{fill:#FF8A5C;}
	.st19{fill:#F8F8F8;stroke:#E0E5EE;stroke-miterlimit:10;}
	.st20{fill:none;stroke:#C6C6C6;stroke-miterlimit:10;}
	.st21{fill:#FF5470;}
	.st22{fill:none;stroke:#FFFFFF;stroke-width:7;stroke-miterlimit:10;}
	.st23{fill:#FF7523;}
	.st24{fill:none;stroke:#FFFFFF;stroke-miterlimit:10;}
	.st25{fill:none;stroke:#0AAFF1;stroke-linecap:round;stroke-linejoin:round;stroke-miterlimit:10;}
	.st26{fill:#0AAFF1;stroke:#FFFFFF;stroke-linecap:round;stroke-linejoin:round;stroke-miterlimit:10;}
	.st27{opacity:0.25;fill:#1E93D1;}
	.st28{fill:#1E93D1;}
	.st29{fill:#1C5392;}
	.st30{fill:none;stroke:#FFFFFF;stroke-linecap:round;stroke-linejoin:round;stroke-miterlimit:10;}
	.st31{fill:none;stroke:#0AAFF1;stroke-width:2;stroke-linecap:round;stroke-linejoin:round;stroke-miterlimit:10;}
	.st32{fill:none;stroke:#0AAFF1;stroke-width:4;stroke-linecap:round;stroke-linejoin:round;stroke-miterlimit:10;}
	.st33{fill:none;stroke:#FFFFFF;stroke-width:5;stroke-miterlimit:10;}
	.st34{fill:none;stroke:#FFFFFF;stroke-width:5;stroke-linecap:round;stroke-linejoin:round;stroke-miterlimit:10;}
	.st35{fill:none;stroke:#0AAFF1;stroke-width:24;stroke-miterlimit:10;}
	.st36{fill:none;stroke:#F2F5FA;stroke-width:10;stroke-miterlimit:10;}
	.st37{fill:#B8D637;}
	.st38{fill:#1D1D1B;}
	.st39{fill:#88898B;}
	.st40{fill:#9F9FA1;}
	.st41{fill:#D2D2D3;}
	.st42{fill:#F7F7F7;}
	.st43{fill:none;stroke:#FFFFFF;stroke-width:4;stroke-linecap:round;stroke-linejoin:round;stroke-miterlimit:10;}
	.st44{fill:#0AAFF1;stroke:#FFFFFF;stroke-width:1.5;stroke-linecap:round;stroke-linejoin:round;stroke-miterlimit:10;}
	.st45{fill:#FFFFFF;stroke:#0AAFF1;stroke-width:1.5;stroke-linecap:round;stroke-linejoin:round;stroke-miterlimit:10;}
	.st46{fill:#FFFFFF;stroke:#0AAFF1;stroke-width:3;stroke-linecap:round;stroke-linejoin:round;stroke-miterlimit:10;}
	.st47{fill:none;stroke:#0AAFF1;stroke-width:3;stroke-linecap:round;stroke-linejoin:round;stroke-miterlimit:10;}
	.st48{fill:none;}
	.st49{fill:#FFFFFF;stroke:#0AAFF1;stroke-width:1.5;stroke-miterlimit:10;}
	.st50{fill:#0AAFF1;stroke:#FFFFFF;stroke-width:1.5;stroke-miterlimit:10;}
	.st51{fill:none;stroke:#0AAFF1;stroke-width:2;stroke-miterlimit:10;}
	.st52{fill:#FFFFFF;stroke:#0AAFF1;stroke-width:2;stroke-miterlimit:10;}
	.st53{fill:#0AAFF1;stroke:#FFFFFF;stroke-miterlimit:10;}
	.st54{fill:none;stroke:#0AAFF1;stroke-miterlimit:10;}
	.st55{fill:#FFFFFF;stroke:#0AAFF1;stroke-miterlimit:10;}
	.st56{fill:none;stroke:#FFFFFF;stroke-width:2;stroke-miterlimit:10;}
	.st57{fill:#0AAFF1;stroke:#0AAFF1;stroke-width:3;stroke-miterlimit:10;}
	.st58{fill:none;stroke:#0AAFF1;stroke-width:4;stroke-miterlimit:10;}
	.st59{fill:none;stroke:#0AAFF1;stroke-width:2.25;stroke-miterlimit:10;}
	.st60{fill:#1FB900;}
	.st61{fill:none;stroke:#0AAFF1;stroke-width:13;stroke-linecap:round;stroke-linejoin:round;stroke-miterlimit:10;}
	.st62{fill:none;stroke:#FFFFFF;stroke-width:1.5;stroke-miterlimit:10;}
	.st63{fill:none;stroke:#FFFFFF;stroke-width:1.5;stroke-linecap:round;stroke-linejoin:round;stroke-miterlimit:10;}
	.st64{fill:#F7FAF9;}
	.st65{fill:none;stroke:#FFFFFF;stroke-width:0.5;stroke-miterlimit:10;}
	.st66{fill:#FFFFFF;stroke:#0AAFF1;stroke-width:3;stroke-miterlimit:10;}
	.st67{fill:#606060;stroke:#0AAFF1;stroke-width:15;stroke-miterlimit:10;}
	.st68{fill:none;stroke:#0AAFF1;stroke-width:8;stroke-miterlimit:10;}
	.st69{fill:#FFFFFF;stroke:#0AAFF1;stroke-width:0.75;stroke-linecap:round;stroke-linejoin:round;stroke-miterlimit:10;}
	.st70{fill:none;stroke:#0AAFF1;stroke-width:10;stroke-linecap:round;stroke-linejoin:round;stroke-miterlimit:10;}
	.st71{fill:none;stroke:#E70027;stroke-width:10;stroke-linecap:round;stroke-linejoin:round;stroke-miterlimit:10;}
	.st72{opacity:0.5;fill:none;stroke:#E70027;stroke-width:10;stroke-miterlimit:10;}
	.st73{opacity:0.5;fill:#E70027;}
	.st74{fill:none;stroke:#FFFFFC;stroke-width:10;stroke-linecap:round;stroke-linejoin:round;stroke-miterlimit:10;}
	.st75{fill:none;stroke:#606060;stroke-width:15;stroke-linecap:round;stroke-linejoin:round;stroke-miterlimit:10;}
	.st76{fill:#606060;stroke:#FFFFFF;stroke-width:7;stroke-miterlimit:10;}
	.st77{fill:#0AAFF1;stroke:#0AAFF1;stroke-miterlimit:10;}
	.st78{fill:none;stroke:#606060;stroke-width:10;stroke-linecap:round;stroke-linejoin:round;stroke-miterlimit:10;}
	.st79{fill:none;stroke:#FFFFFF;stroke-width:7;stroke-miterlimit:10;stroke-dasharray:5.8286,5.8286;}
	.st80{fill:none;stroke:#000000;stroke-width:19;stroke-miterlimit:10;}
	.st81{fill:#0AAFF1;stroke:#FFFFFF;stroke-width:2;stroke-miterlimit:10;}
	.st82{fill:#45B8FF;}
	.st83{opacity:0.5;fill:none;stroke:#45B8FF;stroke-width:1.75;stroke-miterlimit:10;}
	.st84{fill:none;stroke:#000000;stroke-width:1.75;stroke-miterlimit:10;}
	.st85{fill:none;stroke:#000000;stroke-width:1.5;stroke-miterlimit:10;}
	.st86{fill:none;stroke:#0AAFF1;stroke-width:1.75;stroke-miterlimit:10;}
	.st87{fill:none;stroke:#0AAFF1;stroke-width:1.75;stroke-linecap:round;stroke-linejoin:round;stroke-miterlimit:10;}
	.st88{fill:#FFFFFC;stroke:#FFFFFC;stroke-width:3;stroke-miterlimit:10;}
	.st89{fill:none;stroke:#000000;stroke-width:2;stroke-miterlimit:10;}
	.st90{fill:none;stroke:#FFFFFF;stroke-width:2;stroke-linecap:round;stroke-linejoin:round;stroke-miterlimit:10;}
	.st91{fill:#00A3C8;stroke:#606060;stroke-width:5;stroke-miterlimit:10;}
	.st92{fill:#0084F6;}
	.st93{fill:#CDCDC9;}
	.st94{fill-rule:evenodd;clip-rule:evenodd;fill:#FFFFFF;}
	.st95{fill:none;stroke:#0AAFF1;stroke-width:5;stroke-miterlimit:10;}
	.st96{fill:none;stroke:#0AAFF1;stroke-width:5;stroke-linecap:round;stroke-linejoin:round;stroke-miterlimit:10;}
	.st97{fill:#FFFFFF;stroke:#0AAFF1;stroke-width:5;stroke-linecap:round;stroke-linejoin:round;stroke-miterlimit:10;}
	.st98{fill:none;stroke:#0AAFF1;stroke-width:3;stroke-miterlimit:10;}
	.st99{fill:#0AAFF1;stroke:#0AAFF1;stroke-width:6;stroke-linecap:round;stroke-linejoin:round;stroke-miterlimit:10;}
	.st100{fill:#00D06F;}
	.st101{fill:#0AAFF1;stroke:#0AAFF1;stroke-width:6;stroke-miterlimit:10;}
	.st102{fill:none;stroke:#0AAFF1;stroke-width:2.5;stroke-linecap:round;stroke-linejoin:round;stroke-miterlimit:10;}
	.st103{fill:#FFFF00;stroke:#000000;stroke-width:3;stroke-miterlimit:10;}
	.st104{fill:#53FC00;}
	.st105{fill:#80A51B;}
	.st106{fill:none;stroke:#80A51B;stroke-width:0.999;}
	.st107{fill:none;stroke:#000000;stroke-width:0.75;stroke-miterlimit:10;}
	.st108{opacity:0.4;}
	.st109{fill:#0078D4;}
	.st110{fill:#45D7FA;}
	.st111{fill:#189AE1;}
	.st112{fill:none;stroke:#606060;stroke-width:13;stroke-linecap:round;stroke-linejoin:round;stroke-miterlimit:10;}
	.st113{fill:none;stroke:#FFFFFF;stroke-width:7;stroke-linecap:round;stroke-linejoin:round;stroke-miterlimit:10;}
	.st114{fill:#FFFFFF;stroke:#FFFFFF;stroke-miterlimit:10;}
	.st115{fill:#DADADA;}
	.st116{fill:none;stroke:#20FF77;stroke-miterlimit:10;}
</style>
<g>
	<path class="st2" d="M37.6,19.98c0-0.1,0.02-0.21,0.02-0.31v-0.86C37.62,8.42,29.2,0,18.81,0S0,8.42,0,18.81v0.86
		c0,1.89,0.29,3.71,0.8,5.43c0,0.01,0,0.03,0,0.04c0.01,0.05,0.02,0.1,0.03,0.16c0.1,0.54,0.27,1.24,0.47,2.08
		c0.19,0.78,0.41,1.67,0.66,2.64c0.19,0.75,0.4,1.56,0.61,2.39c1.57,6.14,3.55,14,3.55,17.31V53h25.49v-7.77h1.01
		c3.22,0,5.83-2.61,5.83-5.83v-7.64h5.68L37.6,19.98z M18.81,4.23c1.22,0,2.22,1,2.22,2.22c0,1.05-0.74,1.93-1.72,2.16v3.13
		c-0.17-0.01-0.33-0.03-0.5-0.03s-0.33,0.01-0.5,0.03V8.61c-0.98-0.23-1.72-1.11-1.72-2.16C16.59,5.23,17.58,4.23,18.81,4.23z
		 M6.25,11.48c0.3-0.51,0.78-0.88,1.35-1.03c0.57-0.15,1.17-0.08,1.68,0.22c0.91,0.52,1.3,1.6,1.01,2.57L13,14.8
		c-0.19,0.27-0.35,0.57-0.49,0.87L9.79,14.1c-0.42,0.45-1.01,0.71-1.62,0.71c-0.38,0-0.76-0.09-1.11-0.3
		C6,13.9,5.64,12.54,6.25,11.48z M9.28,26.79c-0.34,0.2-0.72,0.3-1.11,0.3c-0.19,0-0.39-0.03-0.58-0.08
		c-0.57-0.15-1.05-0.52-1.35-1.03C5.64,24.92,6,23.56,7.06,22.95c0.91-0.53,2.04-0.33,2.73,0.41l2.71-1.56
		c0.15,0.3,0.31,0.59,0.49,0.87l-2.7,1.56C10.58,25.19,10.19,26.27,9.28,26.79z M18.81,33.23c-1.22,0-2.22-1-2.22-2.22
		c0-1.05,0.74-1.93,1.72-2.16v-3.13c0.17,0.01,0.33,0.03,0.5,0.03s0.33-0.01,0.5-0.03v3.13c0.98,0.23,1.72,1.11,1.72,2.16
		C21.03,32.23,20.03,33.23,18.81,33.23z M22.42,23.43l-1.39-0.78c-0.32,0.18-0.66,0.32-1.02,0.42l-0.43,1.53h-1.55l-0.43-1.53
		c-0.36-0.1-0.7-0.24-1.02-0.42l-1.39,0.78l-1.09-1.09l0.78-1.39c-0.18-0.32-0.32-0.66-0.42-1.02l-1.53-0.43v-1.55l1.53-0.43
		c0.1-0.36,0.24-0.7,0.42-1.02l-0.78-1.39l0.27-0.27l0.82-0.82l1.22,0.69l0.16,0.09c0.32-0.18,0.66-0.32,1.02-0.42l0.43-1.53h1.55
		l0.43,1.53c0.36,0.1,0.7,0.24,1.02,0.42l0.19-0.11l1.19-0.67l1.09,1.09l-0.78,1.39c0.18,0.32,0.32,0.66,0.42,1.02l1.53,0.43v1.55
		l-1.53,0.43c-0.1,0.36-0.24,0.7-0.42,1.02l0.78,1.39L22.42,23.43z M31.37,25.98c-0.3,0.51-0.78,0.88-1.35,1.03
		c-0.19,0.05-0.39,0.08-0.58,0.08c-0.38,0-0.76-0.1-1.11-0.3c-0.91-0.52-1.3-1.6-1.01-2.57l-2.7-1.56c0.19-0.27,0.35-0.57,0.49-0.87
		l2.71,1.56c0.69-0.74,1.82-0.94,2.73-0.41C31.61,23.56,31.98,24.92,31.37,25.98z M30.55,14.51c-0.35,0.2-0.73,0.3-1.11,0.3
		c-0.61,0-1.19-0.26-1.62-0.71l-2.72,1.57c-0.15-0.3-0.31-0.59-0.49-0.87l2.7-1.56c-0.29-0.96,0.1-2.04,1.01-2.57
		c0.51-0.3,1.11-0.38,1.68-0.22c0.57,0.15,1.05,0.52,1.35,1.03C31.98,12.54,31.61,13.9,30.55,14.51z"/>
	<path class="st2" d="M18.81,7.67c0.67,0,1.22-0.55,1.22-1.22c0-0.67-0.55-1.22-1.22-1.22s-1.22,0.55-1.22,1.22
		C17.59,7.12,18.14,7.67,18.81,7.67z"/>
	<path class="st2" d="M18.81,29.79c-0.67,0-1.22,0.55-1.22,1.22c0,0.67,0.55,1.22,1.22,1.22s1.22-0.55,1.22-1.22
		C20.03,30.34,19.48,29.79,18.81,29.79z"/>
	<path class="st2" d="M29.76,11.41c-0.1-0.03-0.21-0.04-0.32-0.04c-0.21,0-0.42,0.06-0.61,0.16c-0.28,0.16-0.48,0.43-0.57,0.74
		c-0.08,0.31-0.04,0.64,0.12,0.92c0.33,0.58,1.08,0.78,1.67,0.45s0.78-1.08,0.45-1.67C30.34,11.7,30.07,11.5,29.76,11.41z"/>
	<path class="st2" d="M8.17,23.65c-0.21,0-0.42,0.05-0.61,0.16c-0.58,0.34-0.78,1.08-0.45,1.67c0.16,0.28,0.43,0.48,0.74,0.57
		c0.31,0.09,0.64,0.04,0.92-0.12h0c0.58-0.34,0.78-1.08,0.45-1.67C9,23.87,8.59,23.65,8.17,23.65z"/>
	<path class="st2" d="M7.56,13.65c0.58,0.34,1.33,0.14,1.67-0.45c0.16-0.28,0.21-0.61,0.12-0.92c-0.08-0.32-0.29-0.58-0.57-0.74h0
		c-0.19-0.11-0.4-0.16-0.61-0.16c-0.11,0-0.21,0.01-0.32,0.04c-0.31,0.08-0.58,0.29-0.74,0.57C6.78,12.56,6.98,13.31,7.56,13.65z"/>
	<path class="st2" d="M30.05,23.81c-0.19-0.11-0.4-0.16-0.61-0.16c-0.42,0-0.83,0.22-1.06,0.61c-0.34,0.58-0.14,1.33,0.45,1.67
		c0.28,0.16,0.61,0.21,0.93,0.12c0.31-0.08,0.58-0.29,0.74-0.57C30.84,24.9,30.64,24.15,30.05,23.81z"/>
	<circle class="st2" cx="18.81" cy="18.73" r="2.19"/>
</g>
</svg>
