<?xml version="1.0" encoding="utf-8"?>
<!-- Generator: Adobe Illustrator 24.0.2, SVG Export Plug-In . SVG Version: 6.00 Build 0)  -->
<svg version="1.1" id="Capa_1" xmlns="http://www.w3.org/2000/svg" xmlns:xlink="http://www.w3.org/1999/xlink" x="0px" y="0px"
	 viewBox="0 0 15.76 12" style="enable-background:new 0 0 15.76 12;" xml:space="preserve">
<style type="text/css">
	.st0{fill:#F2F5FA;}
	.st1{fill:#AEC90B;}
	.st2{fill:#CFCFCF;}
	.st3{fill:#0AAFF1;}
	.st4{fill:#FFFFFF;}
	.st5{fill:#FAFAFA;stroke:#B2B2B2;stroke-width:0.25;stroke-miterlimit:10;}
	.st6{fill:#FF7523;}
	.st7{fill:#DADADA;}
	.st8{opacity:0.6;}
	.st9{fill:#0444BF;}
	.st10{fill:#0684F2;}
	.st11{clip-path:url(#SVGID_2_);}
	.st12{opacity:0.2;}
	.st13{fill:#AEDEF1;}
	.st14{fill:#009768;}
	.st15{fill:#F8B395;}
	.st16{clip-path:url(#SVGID_4_);}
	.st17{clip-path:url(#SVGID_6_);}
	.st18{fill:#F8CEB0;}
	.st19{fill:#1D1D1D;}
	.st20{fill:#CB6858;}
	.st21{fill:#FFFFFF;stroke:#000000;stroke-miterlimit:10;}
	.st22{fill:none;stroke:#000000;stroke-width:2;stroke-miterlimit:10;}
	.st23{fill:#20201F;}
	.st24{fill:#2E7237;}
	.st25{fill:#4B3290;}
	.st26{fill:#04C4E2;}
	.st27{fill:#FF6D0C;}
	.st28{fill:#5A16AF;}
	.st29{clip-path:url(#SVGID_8_);}
	.st30{clip-path:url(#SVGID_10_);}
	.st31{clip-path:url(#SVGID_12_);}
	.st32{fill:#FAFAFA;stroke:#0AAFF1;stroke-width:0.25;stroke-miterlimit:10;}
	.st33{fill:none;stroke:#B2B2B2;stroke-width:0.5;stroke-miterlimit:10;}
	.st34{fill:none;stroke:#0AAFF1;stroke-width:0.5;stroke-miterlimit:10;}
	.st35{fill:#B2B2B2;stroke:#B2B2B2;stroke-width:0.25;stroke-miterlimit:10;}
	.st36{fill:#0AAFF1;stroke:#0AAFF1;stroke-width:0.25;stroke-miterlimit:10;}
	.st37{fill:#B2B2B2;stroke:#FFFFFF;stroke-width:0.5;stroke-miterlimit:10;}
	.st38{fill:none;stroke:#FFFFFF;stroke-width:0.5;stroke-miterlimit:10;}
</style>
<path class="st4" d="M14.18,0.25H1.58c-0.69,0-1.25,0.56-1.25,1.25v9c0,0.69,0.56,1.25,1.25,1.25h12.6c0.69,0,1.25-0.56,1.25-1.25
	v-9C15.43,0.81,14.87,0.25,14.18,0.25z M10.04,6l4.82-4.82c0.05,0.1,0.08,0.2,0.08,0.32v9c0,0.11-0.03,0.22-0.08,0.32L10.04,6z
	 M14.18,0.75c0.12,0,0.22,0.03,0.32,0.08L9.11,6.22c-0.68,0.68-1.78,0.68-2.46,0L1.26,0.83c0.1-0.05,0.2-0.08,0.32-0.08H14.18z
	 M0.91,10.82c-0.05-0.1-0.08-0.2-0.08-0.32v-9c0-0.12,0.03-0.22,0.08-0.32L5.72,6L0.91,10.82z M1.58,11.25
	c-0.12,0-0.22-0.03-0.32-0.08l4.82-4.82L6.3,6.57c0.44,0.44,1.01,0.65,1.58,0.65s1.15-0.22,1.58-0.65l0.22-0.22l4.82,4.82
	c-0.1,0.05-0.2,0.08-0.32,0.08H1.58z"/>
</svg>
