<svg xmlns="http://www.w3.org/2000/svg" viewBox="0 0 19.1 14.58"><defs><style>.cls-1{fill:#4a4a49;}</style></defs><title>Recurso 1</title><g id="Capa_2" data-name="Capa 2"><g id="Capa_1-2" data-name="Capa 1"><path class="cls-1" d="M9,13.85l-.47-.39a7.83,7.83,0,0,0-4.4-1.76c-.36,0-.72-.06-1.08-.08-.59,0-.83-.26-.83-.85V.72A.67.67,0,0,1,2.88,0h.05A7.55,7.55,0,0,1,7.36,1.22,8.69,8.69,0,0,1,8.65,2.43,1.42,1.42,0,0,1,9,3.51V13.85Z"/><path class="cls-1" d="M10.08,13.78V3.43a1.34,1.34,0,0,1,.28-.87A5.82,5.82,0,0,1,14.1.25,13.92,13.92,0,0,1,16,0a.69.69,0,0,1,.83.56.64.64,0,0,1,0,.24v10c0,.57-.25.82-.82.83a9.07,9.07,0,0,0-4.36,1.06A18.72,18.72,0,0,0,10.08,13.78Z"/><path class="cls-1" d="M1.18,2.42v8.24a1.81,1.81,0,0,0,1.58,2h.42a7.44,7.44,0,0,1,4.51,1.42.64.64,0,0,1,.22.27l-.48,0a16.19,16.19,0,0,0-6.24.2l-.43.08A.69.69,0,0,1,0,14V3.41C0,2.51.4,2.3,1.18,2.42Z"/><path class="cls-1" d="M17.91,2.38h.38a.68.68,0,0,1,.8.55,1,1,0,0,1,0,.25V13.66c0,.73-.32,1-1,.84a16.82,16.82,0,0,0-5.34-.37,8.66,8.66,0,0,0-1.23.17h-.28v-.09c.3-.2.58-.43.89-.61a8,8,0,0,1,3.93-1,2,2,0,0,0,1.21-.3,1.64,1.64,0,0,0,.62-1.22V2.41Z"/></g></g></svg>