<svg xmlns="http://www.w3.org/2000/svg" viewBox="0 0 19.05 17.72"><defs><style>.cls-1{fill:#4a4a49;}</style></defs><title>Recurso 1</title><g id="Capa_2" data-name="Capa 2"><g id="Capa_1-2" data-name="Capa 1"><path class="cls-1" d="M15,6.77V8c0,.41,0,.31.31.29l2.86-.21a.74.74,0,0,1,.84.62.57.57,0,0,1,0,.13.76.76,0,0,1-.63.87h-.07l-3,.25a4.92,4.92,0,0,0-1.15.09.94.94,0,0,1-1-.83v-1A1.05,1.05,0,0,0,13.13,8a.72.72,0,0,0-.21.12c-.43.41-.85.83-1.27,1.25-.19.18-.19.24,0,.45L14.52,13a1.21,1.21,0,0,1-.88,2l-3.12.18-2.46.14a.88.88,0,0,1-.89-.81.93.93,0,0,1,.82-1l3.79-.2h.16l.15-.07a.41.41,0,0,0-.07-.15c-.79-.83-1.58-1.66-2.38-2.48a.56.56,0,0,0-.78-.13.53.53,0,0,0-.13.13L1.67,17.41a1,1,0,0,1-.8.31.91.91,0,0,1-.81-.61A1,1,0,0,1,.3,16.06L1.36,15l7-7,3.28-3.3c.19-.19.19-.31,0-.51L10.64,3A.31.31,0,0,0,10.21,3a.23.23,0,0,0-.07.07L8.4,4.55a.8.8,0,0,1-1.13,0,.75.75,0,0,1-.2-.42.64.64,0,0,1,.2-.61l2.62-2.4a1.08,1.08,0,0,1,1.4.09l2.47,2.5,1,1a1.47,1.47,0,0,1,.42,1.11V6.85Z"/><path class="cls-1" d="M16.68,0a2,2,0,1,1-2,2h0A2,2,0,0,1,16.68,0Z"/></g></g></svg>