<?xml version="1.0" encoding="utf-8"?>
<!-- Generator: Adobe Illustrator 24.0.2, SVG Export Plug-In . SVG Version: 6.00 Build 0)  -->
<svg version="1.1" id="Capa_1" xmlns="http://www.w3.org/2000/svg" xmlns:xlink="http://www.w3.org/1999/xlink" x="0px" y="0px"
	 viewBox="0 0 12 16.25" style="enable-background:new 0 0 12 16.25;" xml:space="preserve">
<style type="text/css">
	.st0{fill:#F2F5FA;}
	.st1{fill:#AEC90B;}
	.st2{fill:#CFCFCF;}
	.st3{fill:#0AAFF1;}
	.st4{fill:#FFFFFF;}
	.st5{fill:#FAFAFA;stroke:#B2B2B2;stroke-width:0.25;stroke-miterlimit:10;}
	.st6{fill:#FF7523;}
	.st7{fill:#DADADA;}
	.st8{opacity:0.6;}
	.st9{fill:#0444BF;}
	.st10{fill:#0684F2;}
	.st11{clip-path:url(#SVGID_2_);}
	.st12{opacity:0.2;}
	.st13{fill:#AEDEF1;}
	.st14{fill:#009768;}
	.st15{fill:#F8B395;}
	.st16{clip-path:url(#SVGID_4_);}
	.st17{clip-path:url(#SVGID_6_);}
	.st18{fill:#F8CEB0;}
	.st19{fill:#1D1D1D;}
	.st20{fill:#CB6858;}
	.st21{fill:#FFFFFF;stroke:#000000;stroke-miterlimit:10;}
	.st22{fill:none;stroke:#000000;stroke-width:2;stroke-miterlimit:10;}
	.st23{fill:#20201F;}
	.st24{fill:#2E7237;}
	.st25{fill:#4B3290;}
	.st26{fill:#04C4E2;}
	.st27{fill:#FF6D0C;}
	.st28{fill:#5A16AF;}
	.st29{clip-path:url(#SVGID_8_);}
	.st30{clip-path:url(#SVGID_10_);}
	.st31{clip-path:url(#SVGID_12_);}
	.st32{fill:#FAFAFA;stroke:#0AAFF1;stroke-width:0.25;stroke-miterlimit:10;}
	.st33{fill:none;stroke:#B2B2B2;stroke-width:0.5;stroke-miterlimit:10;}
	.st34{fill:none;stroke:#0AAFF1;stroke-width:0.5;stroke-miterlimit:10;}
	.st35{fill:#B2B2B2;stroke:#B2B2B2;stroke-width:0.25;stroke-miterlimit:10;}
	.st36{fill:#0AAFF1;stroke:#0AAFF1;stroke-width:0.25;stroke-miterlimit:10;}
	.st37{fill:#B2B2B2;stroke:#FFFFFF;stroke-width:0.5;stroke-miterlimit:10;}
	.st38{fill:none;stroke:#FFFFFF;stroke-width:0.5;stroke-miterlimit:10;}
</style>
<path class="st4" d="M10.5,6.71h-0.23V4.53c0-2.31-1.88-4.2-4.2-4.2s-4.2,1.88-4.2,4.2v2.18H1.5c-0.69,0-1.25,0.56-1.25,1.25v6.7
	c0,0.69,0.56,1.25,1.25,1.25h9c0.69,0,1.25-0.56,1.25-1.25v-6.7C11.75,7.27,11.19,6.71,10.5,6.71z M2.38,4.53
	c0-2.04,1.66-3.7,3.7-3.7s3.7,1.66,3.7,3.7v2.18H2.38V4.53z M11.25,14.66c0,0.41-0.34,0.75-0.75,0.75h-9
	c-0.41,0-0.75-0.34-0.75-0.75v-6.7c0-0.41,0.34-0.75,0.75-0.75h9c0.41,0,0.75,0.34,0.75,0.75V14.66z"/>
</svg>
