<svg id="Capa_1" data-name="Capa 1" xmlns="http://www.w3.org/2000/svg" viewBox="0 0 20 20"><defs><style>.cls-1{fill:#ff5470;}.cls-2{fill:#fff;}</style></defs><title>question2</title><path class="cls-1" d="M19.5,7.56V5.79A5.29,5.29,0,0,0,14.21.5H5.79A5.29,5.29,0,0,0,.5,5.79v8.42A5.29,5.29,0,0,0,5.79,19.5h8.42a5.29,5.29,0,0,0,5.29-5.29V7.56Z"/><path class="cls-2" d="M8.79,11.31a1.8,1.8,0,0,1,.56-1.44c1.19-1.14,2.05-1.67,2.05-2.4a1.07,1.07,0,0,0-1.15-1.12A1.49,1.49,0,0,0,8.66,7.77L6.19,7.61a3.68,3.68,0,0,1,4-3.48c2,0,3.61,1.09,3.61,3.16,0,1.22-.47,2-2,3.16a1.33,1.33,0,0,0-.63,1.11V12H8.79ZM10,12.92a1.48,1.48,0,1,1-1.47,1.47A1.47,1.47,0,0,1,10,12.92Z"/></svg>
