<svg id="Capa_1" data-name="Capa 1" xmlns="http://www.w3.org/2000/svg" viewBox="0 0 18.24 13.68"><defs><style>.cls-1{fill:#ff5470;}.cls-2{fill:#fff;}</style></defs><title>question</title><path class="cls-1" d="M19.12,9.75C19.12,6.11,15,3.16,10,3.16S.88,6.11.88,9.75,5,16.33,10,16.33a11.7,11.7,0,0,0,5-1.08l2.13,1.59,0-3A5.58,5.58,0,0,0,19.12,9.75Z" transform="translate(-0.88 -3.16)"/><path class="cls-2" d="M9.8,11.83c-1-.09-1.12-.25-.82-1.2a2.66,2.66,0,0,1,1.25-1.51A.9.9,0,0,0,10.66,8a.83.83,0,0,0-1-.65,1.47,1.47,0,0,0-.82.54.61.61,0,0,1-.63.34c-.14,0-.28,0-.43,0-.9,0-1-.11-.61-1a2.73,2.73,0,1,1,4.15,3.23,1.46,1.46,0,0,0-.79,1C10.51,11.87,10.44,11.89,9.8,11.83Z" transform="translate(-0.88 -3.16)"/><path class="cls-2" d="M9.72,14.44a1.05,1.05,0,1,1,.07-2.1,1.05,1.05,0,0,1-.07,2.1Z" transform="translate(-0.88 -3.16)"/></svg>
