<svg id="Capa_1" data-name="Capa 1" xmlns="http://www.w3.org/2000/svg" viewBox="0 0 20 20"><defs><style>.cls-1{fill:#ff5470;}</style></defs><title>load</title><path class="cls-1" d="M2.07,19.5H17.93a1.57,1.57,0,0,0,1.57-1.57V4.31A2.24,2.24,0,0,0,19.17,3L16.92.78A1.55,1.55,0,0,0,15.77.51H2.07A1.56,1.56,0,0,0,.5,2.07V17.93A1.57,1.57,0,0,0,2.07,19.5ZM4.71,1.93a.38.38,0,0,1,.38-.38h9.82a.38.38,0,0,1,.38.38V7.37a.38.38,0,0,1-.38.38H5.09a.38.38,0,0,1-.38-.38Zm-1.5,9.44a.86.86,0,0,1,.86-.86H15.93a.86.86,0,0,1,.86.86v7.08H3.21Z"/><rect class="cls-1" x="12.08" y="2.5" width="1.88" height="4.27" rx="0.33"/><polygon class="cls-1" points="14.65 16.1 14.65 17.05 5.35 17.05 5.35 16.1 14.65 16.1 14.65 16.1"/><polygon class="cls-1" points="14.65 13.97 14.65 14.92 5.35 14.92 5.35 13.97 14.65 13.97 14.65 13.97"/><polygon class="cls-1" points="14.65 11.83 14.65 12.78 5.35 12.78 5.35 11.83 14.65 11.83 14.65 11.83"/></svg>