<svg xmlns="http://www.w3.org/2000/svg" viewBox="0 0 19 19.01"><defs><style>.cls-1{fill:#4a4a49;}</style></defs><title>Recurso 1</title><g id="Capa_2" data-name="Capa 2"><g id="Capa_1-2" data-name="Capa 1"><path class="cls-1" d="M1.57,19H17.43A1.57,1.57,0,0,0,19,17.44V3.82a2.23,2.23,0,0,0-.33-1.31L16.42.29A1.52,1.52,0,0,0,15.27,0H1.57A1.56,1.56,0,0,0,0,1.57H0V17.44A1.57,1.57,0,0,0,1.57,19ZM4.21,1.44a.38.38,0,0,1,.38-.38h9.82a.38.38,0,0,1,.38.38h0V6.88a.38.38,0,0,1-.38.38H4.59a.38.38,0,0,1-.38-.38h0Zm-1.5,9.44A.86.86,0,0,1,3.57,10H15.43a.86.86,0,0,1,.86.86h0V18H2.71Z"/><rect class="cls-1" x="11.58" y="2.01" width="1.88" height="4.27" rx="0.33"/><polygon class="cls-1" points="14.15 15.61 14.15 16.56 4.85 16.56 4.85 15.61 14.15 15.61 14.15 15.61"/><polygon class="cls-1" points="14.15 13.48 14.15 14.43 4.85 14.43 4.85 13.48 14.15 13.48 14.15 13.48"/><polygon class="cls-1" points="14.15 11.34 14.15 12.29 4.85 12.29 4.85 11.34 14.15 11.34 14.15 11.34"/></g></g></svg>