<svg id="Capa_1" data-name="Capa 1" xmlns="http://www.w3.org/2000/svg" viewBox="0 0 20 20"><defs><style>.cls-1{fill:#ff5470;}</style></defs><title>trainer</title><path class="cls-1" d="M15.5,7.91c0,.4,0,.8,0,1.21s0,.31.31.29l2.86-.21a.74.74,0,0,1,.85.75.76.76,0,0,1-.7.88l-3,.25c-.39,0-.77,0-1.15.09a.94.94,0,0,1-1-.83c0-.33,0-.66,0-1a1.05,1.05,0,0,0-.06-.24.88.88,0,0,0-.21.12c-.43.41-.85.83-1.27,1.25-.19.18-.19.24,0,.45L15,14.09a1.18,1.18,0,0,1,.22,1.32,1.16,1.16,0,0,1-1.1.72L11,16.31l-2.46.14a.88.88,0,0,1-.89-.81.93.93,0,0,1,.82-1l3.79-.2h.16a.51.51,0,0,0,.15-.07.41.41,0,0,0-.07-.15c-.79-.83-1.58-1.66-2.38-2.48a.56.56,0,0,0-.91,0L2.15,18.55a1,1,0,0,1-.8.31.91.91,0,0,1-.81-.61A1,1,0,0,1,.78,17.2l1.06-1.07,7-7,3.28-3.3c.19-.19.19-.31,0-.51l-1-1.14a.31.31,0,0,0-.5,0c-.58.51-1.15,1-1.74,1.51a.8.8,0,0,1-1.33-.47.64.64,0,0,1,.2-.61l2.62-2.4a1.07,1.07,0,0,1,1.4.09l2.47,2.5c.33.33.65.66,1,1a1.44,1.44,0,0,1,.42,1.11c0,.36,0,.72,0,1.08Z"/><path class="cls-1" d="M17.16,1.14a2,2,0,1,1-2,2A2,2,0,0,1,17.16,1.14Z"/></svg>