<svg xmlns="http://www.w3.org/2000/svg" viewBox="0 0 65.25 92.02"><defs><style>.cls-1{fill:#fff;}</style></defs><title>Recurso 25</title><g id="Capa_2" data-name="Capa 2"><g id="Capa_1-2" data-name="Capa 1"><path class="cls-1" d="M58.55,17.38H49.93V15a3.86,3.86,0,0,0-3.86-3.86h-5.6a7.61,7.61,0,1,0-13.44,0H19.61A3.86,3.86,0,0,0,15.75,15v2.35h-9A6.7,6.7,0,0,0,0,24.08V85.32A6.7,6.7,0,0,0,6.7,92H58.55a6.7,6.7,0,0,0,6.7-6.7V24.08A6.7,6.7,0,0,0,58.55,17.38ZM33.75,3a4.59,4.59,0,0,1,2.89,8.17H30.86A4.59,4.59,0,0,1,33.75,3Zm25.5,79.74a3.11,3.11,0,0,1-3.11,3.11H9.43a3.11,3.11,0,0,1-3.11-3.11v-56A3.11,3.11,0,0,1,9.43,23.6h6.4a3.84,3.84,0,0,0,3.78,3.11H46.07a3.86,3.86,0,0,0,3.78-3.11h6.29a3.11,3.11,0,0,1,3.11,3.11Z"/><path class="cls-1" d="M32.71,31.55a22.83,22.83,0,1,0,22.6,22.83A22.72,22.72,0,0,0,32.71,31.55Zm0,39.64A16.82,16.82,0,1,1,49.37,54.38,16.74,16.74,0,0,1,32.71,71.19Z"/><path class="cls-1" d="M40.82,45.14,26.74,59.21l-1.9-1.9a2.39,2.39,0,1,0-3.38,3.38l3.59,3.59h0l0,0a2.38,2.38,0,0,0,3.37,0,2.2,2.2,0,0,0,.28-.34L44.2,48.51a2.39,2.39,0,0,0-3.38-3.37Z"/></g></g></svg>
