<svg xmlns="http://www.w3.org/2000/svg" viewBox="0 0 90.28 86.42"><defs><style>.cls-1{fill:#fff;}</style></defs><title>Recurso 26</title><g id="Capa_2" data-name="Capa 2"><g id="Capa_1-2" data-name="Capa 1"><rect class="cls-1" x="33.87" y="0.74" width="56.41" height="6.11" rx="3.05"/><rect class="cls-1" x="33.87" y="10.94" width="31.9" height="6.11" rx="3.05"/><rect class="cls-1" x="33.87" y="31.92" width="56.41" height="6.11" rx="3.05"/><rect class="cls-1" x="33.87" y="42.12" width="31.9" height="6.11" rx="3.05"/><rect class="cls-1" x="33.87" y="62.85" width="56.41" height="6.11" rx="3.05"/><rect class="cls-1" x="33.87" y="73.06" width="31.9" height="6.11" rx="3.05"/><path class="cls-1" d="M16.26,32H7.38A7.37,7.37,0,0,0,0,39.34v8.35a7.73,7.73,0,0,0,7.73,7.73H15.9a7.73,7.73,0,0,0,7.74-7.73V39.34A7.38,7.38,0,0,0,16.26,32ZM19.89,48a3.62,3.62,0,0,1-3.62,3.61H7.47A3.61,3.61,0,0,1,3.86,48V39a3.26,3.26,0,0,1,3.26-3.26h9.51A3.26,3.26,0,0,1,19.89,39Z"/><path class="cls-1" d="M16.26,63H7.38A7.37,7.37,0,0,0,0,70.34v8.35a7.73,7.73,0,0,0,7.73,7.73H15.9a7.73,7.73,0,0,0,7.74-7.73V70.34A7.38,7.38,0,0,0,16.26,63ZM19.89,79a3.62,3.62,0,0,1-3.62,3.62H7.47A3.62,3.62,0,0,1,3.86,79V70a3.26,3.26,0,0,1,3.26-3.26h9.51A3.26,3.26,0,0,1,19.89,70Z"/><path class="cls-1" d="M19.89,12.52V16.9a3.62,3.62,0,0,1-3.62,3.62H7.47A3.62,3.62,0,0,1,3.86,16.9v-9A3.26,3.26,0,0,1,7.12,4.61h8.45L19,1.36A7.35,7.35,0,0,0,16.26.83H7.38A7.37,7.37,0,0,0,0,8.21v8.35A7.74,7.74,0,0,0,7.73,24.3H15.9a7.74,7.74,0,0,0,7.74-7.74V8.77Z"/><path class="cls-1" d="M25.8.56a1.88,1.88,0,0,0-2.68,0L11.93,11.74l-1.51-1.51a1.9,1.9,0,0,0-2.68,2.68l2.85,2.85h0l0,0a1.9,1.9,0,0,0,2.68,0,1.74,1.74,0,0,0,.22-.27L25.8,3.24A1.9,1.9,0,0,0,25.8.56Z"/></g></g></svg>
