<?xml version="1.0" encoding="utf-8"?>
<!-- Generator: Adobe Illustrator 24.0.2, SVG Export Plug-In . SVG Version: 6.00 Build 0)  -->
<svg version="1.1" id="Capa_1" xmlns="http://www.w3.org/2000/svg" xmlns:xlink="http://www.w3.org/1999/xlink" x="0px" y="0px"
	 viewBox="0 0 360 55" style="enable-background:new 0 0 360 55;" xml:space="preserve">
<style type="text/css">
	.st0{fill:#D0D0D0;}
	.st1{fill:#AFCA0B;}
</style>
<g>
	<g>
		<path class="st0" d="M5,49.06v-5.39h5.42V11.33H5V5.94h20.32v5.39h-5.45v32.34h5.45v5.39H5z"/>
		<path class="st0" d="M51.61,12.92v36.14h-9.48V12.92H29.89V5.94h33.93v6.98H51.61z"/>
		<path class="st0" d="M68.44,49.06v-5.39h5.42V11.33h-5.42V5.94h20.32v5.39h-5.45v32.34h5.45v5.39H68.44z"/>
		<path class="st0" d="M96.85,5.94h9.45v36.14h16.9v6.98H96.85V5.94z"/>
		<path class="st0" d="M124.25,30.99v-7.17h17.85v7.17H124.25z"/>
		<path class="st0" d="M159.5,30.86v18.2h-9.48V5.94h26.41v6.98H159.5v10.97h14.84v6.98H159.5z"/>
	</g>
	<g>
		<path class="st1" d="M213.84,13.89V5.94h-29.32v7.95h10.59v23.46c0,6.12,4.98,11.1,11.1,11.1h2.84V40.5h-2.84
			c-1.74,0-3.15-1.41-3.15-3.15V13.89H213.84z"/>
		<g>
			<path class="st1" d="M347.8,5.98c1.03,0,1.98,0.17,2.86,0.5c0.87,0.34,1.63,0.82,2.28,1.44c0.64,0.62,1.15,1.38,1.51,2.27
				c0.36,0.89,0.55,1.89,0.55,2.99c0,1.1-0.18,2.1-0.55,2.99c-0.36,0.89-0.87,1.65-1.51,2.27c-0.65,0.62-1.41,1.1-2.28,1.44
				c-0.87,0.34-1.83,0.5-2.86,0.5s-1.98-0.17-2.87-0.5c-0.88-0.34-1.64-0.82-2.29-1.44c-0.64-0.62-1.15-1.38-1.51-2.27
				c-0.37-0.89-0.55-1.89-0.55-2.99c0-1.1,0.18-2.1,0.55-2.99c0.37-0.89,0.87-1.65,1.51-2.27c0.64-0.62,1.4-1.1,2.29-1.44
				C345.82,6.14,346.78,5.98,347.8,5.98z M347.8,19.4c0.82,0,1.6-0.12,2.33-0.38c0.73-0.25,1.36-0.63,1.9-1.15
				c0.54-0.51,0.97-1.16,1.28-1.94c0.32-0.78,0.47-1.7,0.47-2.75c0-1.06-0.16-1.97-0.47-2.75C353,9.65,352.57,9,352.03,8.49
				c-0.54-0.51-1.17-0.9-1.9-1.15c-0.73-0.25-1.5-0.38-2.33-0.38c-0.83,0-1.61,0.13-2.34,0.38c-0.73,0.25-1.36,0.63-1.9,1.15
				c-0.54,0.51-0.96,1.16-1.28,1.94c-0.31,0.78-0.47,1.7-0.47,2.75c0,1.06,0.16,1.97,0.47,2.75c0.31,0.78,0.74,1.43,1.28,1.94
				c0.54,0.51,1.17,0.9,1.9,1.15C346.2,19.27,346.97,19.4,347.8,19.4z M344.92,9.33h3.07c0.41,0,0.8,0.05,1.16,0.14
				c0.36,0.09,0.68,0.24,0.95,0.43c0.27,0.19,0.48,0.44,0.63,0.74c0.15,0.3,0.23,0.65,0.23,1.07c0,0.23-0.04,0.45-0.13,0.65
				c-0.09,0.2-0.21,0.38-0.37,0.54c-0.15,0.16-0.34,0.3-0.55,0.43c-0.21,0.12-0.43,0.23-0.66,0.31l1.84,3.14h-1.28l-1.7-2.92h-1.95
				v2.92h-1.26V9.33z M346.18,10.34v2.49h2.26c0.14-0.02,0.28-0.05,0.43-0.1c0.15-0.05,0.29-0.12,0.42-0.2
				c0.13-0.09,0.23-0.2,0.31-0.33c0.08-0.13,0.12-0.3,0.12-0.5c0-0.49-0.16-0.84-0.49-1.05c-0.33-0.21-0.81-0.31-1.43-0.31H346.18z"
				/>
		</g>
		<path class="st1" d="M281.57,48.46h-7.95V30.05c0-3.32-2.7-6.02-6.02-6.02c-3.32,0-6.02,2.7-6.02,6.02v18.41h-7.95V30.05
			c0-7.71,6.27-13.98,13.98-13.98c7.71,0,13.98,6.27,13.98,13.98V48.46z"/>
		<path class="st1" d="M247.2,34.18h-25.39c0.37,2.24,1.35,4.02,2.94,5.34c1.59,1.32,3.62,1.98,6.1,1.98c2.95,0,5.49-1.03,7.61-3.1
			l6.66,3.13c-1.66,2.36-3.65,4.1-5.96,5.23c-2.32,1.13-5.07,1.69-8.25,1.69c-4.94,0-8.97-1.56-12.07-4.68
			c-3.11-3.12-4.66-7.02-4.66-11.71c0-4.81,1.55-8.8,4.65-11.97c3.1-3.17,6.98-4.76,11.65-4.76c4.96,0,8.99,1.59,12.1,4.76
			c3.11,3.18,4.66,7.37,4.66,12.58L247.2,34.18z M239.3,27.96c-0.52-1.76-1.55-3.18-3.09-4.29c-1.54-1.1-3.32-1.65-5.35-1.65
			c-2.2,0-4.14,0.62-5.8,1.85c-1.04,0.77-2.01,2.13-2.9,4.08H239.3z"/>
		<path class="st1" d="M298.52,17.38V5.98h-7.95v11.4h-6.15l0,0v6.22v0h6.15v13.75c0,6.12,4.98,11.1,11.1,11.1h3V40.5h-3
			c-1.73,0-3.15-1.41-3.15-3.15V23.61h6.15v0v-6.22l0,0H298.52z"/>
		<path class="st1" d="M324.03,15.3c-9.14,0-16.58,7.44-16.58,16.58c0,9.14,7.44,16.58,16.58,16.58c9.14,0,16.58-7.44,16.58-16.58
			C340.61,22.74,333.17,15.3,324.03,15.3z M323.64,37.21c-0.5-0.43-1.11-0.68-1.76-0.73l-7.4-0.58l14.72-14.52l0.07,20.68
			L323.64,37.21z"/>
	</g>
</g>
</svg>
