<?xml version="1.0" encoding="utf-8"?>
<!-- Generator: Adobe Illustrator 24.0.2, SVG Export Plug-In . SVG Version: 6.00 Build 0)  -->
<svg version="1.1" id="Capa_1" xmlns="http://www.w3.org/2000/svg" xmlns:xlink="http://www.w3.org/1999/xlink" x="0px" y="0px"
	 viewBox="0 0 525 90" style="enable-background:new 0 0 525 90;" xml:space="preserve">
<style type="text/css">
	.st0{fill:#D0D0D0;}
	.st1{fill:#AFCA0A;}
</style>
<g>
	<g>
		<path class="st1" d="M349.54,30.12v-8.51h-31.38v8.51h11.33v25.11c0,6.55,5.33,11.88,11.88,11.88h3.04V58.6h-3.04
			c-1.86,0-3.37-1.51-3.37-3.37V30.12H349.54z"/>
		<g>
			<path class="st1" d="M492.89,21.65c1.1,0,2.12,0.18,3.06,0.54c0.94,0.36,1.75,0.87,2.44,1.54c0.69,0.67,1.23,1.48,1.62,2.43
				c0.39,0.95,0.58,2.02,0.58,3.2c0,1.18-0.19,2.25-0.58,3.2c-0.39,0.95-0.93,1.76-1.62,2.43c-0.69,0.67-1.5,1.18-2.44,1.54
				c-0.94,0.36-1.96,0.54-3.06,0.54s-2.12-0.18-3.07-0.54c-0.94-0.36-1.76-0.87-2.45-1.54c-0.69-0.67-1.23-1.48-1.62-2.43
				c-0.39-0.95-0.59-2.02-0.59-3.2c0-1.18,0.2-2.25,0.59-3.2c0.39-0.95,0.93-1.76,1.62-2.43c0.69-0.67,1.5-1.18,2.45-1.54
				C490.77,21.83,491.79,21.65,492.89,21.65z M492.89,36.01c0.88,0,1.71-0.13,2.49-0.4c0.78-0.27,1.46-0.68,2.03-1.23
				c0.58-0.55,1.03-1.24,1.37-2.08c0.34-0.83,0.51-1.82,0.51-2.95c0-1.13-0.17-2.11-0.51-2.95c-0.34-0.83-0.79-1.53-1.37-2.08
				c-0.58-0.55-1.25-0.96-2.03-1.23c-0.78-0.27-1.61-0.4-2.49-0.4c-0.89,0-1.72,0.13-2.5,0.4c-0.78,0.27-1.46,0.68-2.03,1.23
				c-0.58,0.55-1.03,1.24-1.37,2.08c-0.33,0.83-0.5,1.82-0.5,2.95c0,1.13,0.17,2.11,0.5,2.95c0.33,0.83,0.79,1.53,1.37,2.08
				c0.58,0.55,1.25,0.96,2.03,1.23C491.17,35.88,492,36.01,492.89,36.01z M489.81,25.24h3.28c0.44,0,0.86,0.05,1.24,0.15
				c0.39,0.1,0.73,0.25,1.01,0.46c0.29,0.21,0.51,0.47,0.68,0.79c0.17,0.32,0.25,0.7,0.25,1.14c0,0.25-0.05,0.48-0.14,0.69
				s-0.23,0.41-0.39,0.58c-0.17,0.17-0.36,0.32-0.58,0.46c-0.22,0.13-0.46,0.24-0.71,0.33l1.97,3.36h-1.37l-1.82-3.13h-2.08v3.13
				h-1.34V25.24z M491.15,26.32v2.67h2.42c0.15-0.02,0.3-0.06,0.46-0.11c0.16-0.05,0.31-0.12,0.45-0.21
				c0.14-0.09,0.25-0.21,0.34-0.35c0.09-0.14,0.13-0.32,0.13-0.53c0-0.53-0.18-0.9-0.53-1.12c-0.35-0.22-0.86-0.33-1.53-0.33H491.15
				z"/>
		</g>
		<path class="st1" d="M422.01,67.11h-8.51v-19.7c0-3.55-2.89-6.44-6.44-6.44c-3.55,0-6.44,2.89-6.44,6.44v19.7h-8.51v-19.7
			c0-8.25,6.71-14.95,14.95-14.95c8.25,0,14.96,6.71,14.96,14.95V67.11z"/>
		<path class="st1" d="M385.24,51.83h-27.17c0.39,2.4,1.44,4.3,3.14,5.72c1.7,1.41,3.88,2.12,6.52,2.12c3.16,0,5.88-1.1,8.15-3.32
			L383,59.7c-1.78,2.52-3.9,4.38-6.38,5.59c-2.48,1.21-5.42,1.81-8.83,1.81c-5.29,0-9.59-1.67-12.92-5
			c-3.33-3.33-4.99-7.51-4.99-12.53c0-5.14,1.66-9.41,4.97-12.81c3.31-3.4,7.47-5.1,12.47-5.1c5.31,0,9.63,1.7,12.95,5.1
			c3.32,3.4,4.99,7.89,4.99,13.46L385.24,51.83z M376.78,45.17c-0.56-1.88-1.66-3.41-3.31-4.59c-1.65-1.18-3.55-1.77-5.73-1.77
			c-2.36,0-4.43,0.66-6.21,1.98c-1.12,0.83-2.15,2.28-3.1,4.37H376.78z"/>
		<path class="st1" d="M440.16,33.85v-12.2h-8.51v12.2h-6.58l0,0v6.66v0h6.58v14.71c0,6.55,5.33,11.88,11.88,11.88h3.21V58.6h-3.21
			c-1.86,0-3.37-1.51-3.37-3.37V40.52h6.58v0v-6.66l0,0H440.16z"/>
		<path class="st1" d="M467.45,31.63c-9.78,0-17.74,7.96-17.74,17.74c0,9.78,7.96,17.74,17.74,17.74c9.78,0,17.74-7.96,17.74-17.74
			C485.19,39.59,477.23,31.63,467.45,31.63z M467.03,55.08c-0.53-0.46-1.19-0.73-1.89-0.79l-7.92-0.62l15.76-15.54l0.08,22.13
			L467.03,55.08z"/>
	</g>
	<g>
		<path class="st0" d="M78.9,44.93c0-3.52,0.52-6.72,1.57-9.59c1.05-2.87,2.54-5.33,4.48-7.37c1.94-2.04,4.29-3.61,7.07-4.71
			c2.77-1.1,5.89-1.65,9.34-1.65c2.27,0,4.19,0.18,5.76,0.53s2.92,0.77,4.06,1.24l-1.7,6.75c-1.05-0.38-2.22-0.68-3.52-0.9
			s-2.69-0.33-4.16-0.33c-1.94,0-3.69,0.31-5.25,0.94c-1.56,0.62-2.88,1.59-3.98,2.89c-1.09,1.3-1.93,2.96-2.52,4.98
			c-0.59,2.02-0.89,4.43-0.89,7.23c0,2.81,0.3,5.23,0.9,7.27c0.6,2.04,1.45,3.72,2.56,5.03c1.1,1.31,2.44,2.29,4.01,2.92
			c1.57,0.63,3.31,0.95,5.23,0.95c1.8,0,3.45-0.18,4.94-0.55c1.49-0.37,2.81-0.77,3.94-1.22l1.57,6.78
			c-1.29,0.65-2.87,1.19-4.74,1.62c-1.87,0.43-4.15,0.65-6.85,0.65c-3.34,0-6.35-0.56-9.04-1.69c-2.68-1.12-4.97-2.71-6.87-4.76
			c-1.89-2.05-3.35-4.52-4.38-7.4C79.41,51.65,78.9,48.45,78.9,44.93z"/>
		<path class="st0" d="M114.92,48.68v-7.55h18.81v7.55H114.92z"/>
		<path class="st0" d="M167.21,58.23h-16.4l-3.07,9.49h-9.82l15.67-45.44h10.86l15.7,45.44h-9.82L167.21,58.23z M153.17,50.88h11.66
			l-5.85-17.91L153.17,50.88z"/>
		<path class="st0" d="M186.75,22.28h15.27c3.43,0,6.54,0.54,9.32,1.62c2.78,1.08,5.16,2.61,7.12,4.58
			c1.96,1.97,3.47,4.35,4.53,7.13c1.06,2.78,1.59,5.89,1.59,9.32c0,3.43-0.53,6.54-1.59,9.34c-1.06,2.8-2.57,5.19-4.53,7.18
			c-1.96,1.99-4.33,3.54-7.12,4.63c-2.78,1.09-5.89,1.64-9.32,1.64h-15.27V22.28z M196.74,29.56v30.87h4.54
			c1.96,0,3.75-0.3,5.36-0.9c1.61-0.6,2.99-1.54,4.13-2.81s2.02-2.88,2.64-4.83c0.62-1.95,0.94-4.27,0.94-6.97
			c0-2.7-0.31-5.01-0.94-6.95c-0.62-1.94-1.5-3.53-2.64-4.78c-1.14-1.25-2.51-2.17-4.13-2.76c-1.62-0.59-3.4-0.88-5.36-0.88H196.74z
			"/>
		<path class="st0" d="M262.16,55.12c0,2-0.38,3.82-1.15,5.45c-0.77,1.63-1.86,3.02-3.27,4.18c-1.41,1.16-3.12,2.05-5.13,2.69
			c-2,0.63-4.24,0.95-6.72,0.95c-1.31,0-2.67-0.08-4.06-0.23c-1.39-0.16-2.77-0.37-4.13-0.65c-1.36-0.28-2.66-0.62-3.91-1.02
			c-1.25-0.4-2.37-0.86-3.37-1.37l2.41-7.22c1.09,0.36,2.15,0.68,3.19,0.98c1.04,0.3,2.07,0.56,3.09,0.79
			c1.02,0.22,2.05,0.4,3.09,0.52c1.04,0.12,2.1,0.18,3.19,0.18c2.09,0,3.71-0.44,4.84-1.32c1.14-0.88,1.7-2.12,1.7-3.72
			c0-0.8-0.19-1.53-0.57-2.17c-0.38-0.65-0.92-1.23-1.64-1.75c-0.71-0.52-1.57-1.01-2.57-1.45c-1-0.44-2.12-0.87-3.34-1.27
			c-2.05-0.69-3.9-1.46-5.55-2.31c-1.65-0.85-3.05-1.82-4.21-2.92c-1.16-1.1-2.05-2.35-2.69-3.74c-0.63-1.39-0.95-2.97-0.95-4.73
			c0-2,0.38-3.83,1.15-5.46s1.86-3.04,3.27-4.21c1.41-1.17,3.12-2.08,5.11-2.72c1.99-0.65,4.23-0.97,6.7-0.97
			c1.38,0,2.76,0.11,4.13,0.32c1.37,0.21,2.68,0.48,3.93,0.8c1.25,0.32,2.39,0.69,3.44,1.09c1.05,0.4,1.94,0.8,2.67,1.2l-1.87,7.25
			c-1.11-0.38-2.16-0.73-3.14-1.05c-0.98-0.32-1.94-0.6-2.87-0.84c-0.94-0.23-1.87-0.42-2.81-0.55c-0.94-0.13-1.9-0.2-2.91-0.2
			c-2.21,0-3.85,0.47-4.93,1.4c-1.08,0.94-1.62,2.14-1.62,3.61c0,0.71,0.13,1.38,0.4,1.99c0.27,0.61,0.69,1.19,1.27,1.72
			c0.58,0.53,1.32,1.03,2.24,1.49c0.91,0.46,2.03,0.9,3.34,1.32c2.54,0.8,4.71,1.66,6.51,2.57c1.8,0.91,3.27,1.93,4.41,3.04
			c1.14,1.11,1.97,2.35,2.51,3.72C261.89,51.86,262.16,53.41,262.16,55.12z"/>
		<path class="st0" d="M295.2,58.23h-16.4l-3.07,9.49h-9.82l15.67-45.44h10.86l15.7,45.44h-9.82L295.2,58.23z M281.17,50.88h11.66
			l-5.85-17.91L281.17,50.88z"/>
		<polygon class="st0" points="59.76,22.28 47.73,43.7 35.7,22.28 24.41,22.28 24.41,67.72 28.19,67.72 34.37,67.72 34.37,50.38 
			34.37,36.31 44.72,55.09 50.7,55.09 60.96,36.55 60.96,50.71 60.96,67.72 64.57,67.72 70.95,67.72 70.95,22.28 		"/>
	</g>
</g>
</svg>
